<?xml version="1.0" encoding="UTF-8"?>
<svg xmlns="http://www.w3.org/2000/svg" xmlns:xlink="http://www.w3.org/1999/xlink" width="389px" height="146px" viewBox="0 0 389 146" version="1.1">
<g id="surface1">
<path style=" stroke:none;fill-rule:nonzero;fill:rgb(0%,67.45098%,84.313725%);fill-opacity:1;" d="M 222.257812 10.109375 L 223.109375 10.679688 C 233.148438 17.316406 240.347656 26.414062 245.082031 37.410156 C 246.21875 39.113281 245.460938 40.0625 243.1875 40.632812 L 239.339844 41.617188 C 230.644531 43.859375 223.742188 45.742188 215.160156 47.988281 L 210.265625 49.261719 C 208.5 49.699219 208.015625 49.515625 206.140625 47.378906 L 205.875 47.074219 C 203.203125 44.042969 201.199219 42.015625 197.65625 40.210938 L 196.972656 39.871094 C 185.042969 33.996094 173.488281 35.703125 162.691406 42.714844 C 149.8125 51.058594 143.183594 63.378906 143.375 78.734375 C 143.5625 93.898438 153.980469 106.410156 168.941406 108.492188 C 181.820312 110.199219 192.617188 105.648438 201.140625 95.984375 C 202.84375 93.898438 204.359375 91.621094 206.253906 88.96875 L 169.699219 88.96875 C 165.722656 88.96875 164.777344 86.503906 166.101562 83.28125 L 166.757812 81.734375 C 169.191406 76.066406 172.96875 67.917969 175.421875 63.261719 L 175.957031 62.257812 C 176.609375 61.121094 177.9375 59.585938 180.496094 59.585938 L 241.449219 59.585938 C 244.183594 50.90625 248.625 42.703125 254.550781 34.945312 C 268.375 16.746094 285.042969 7.269531 307.582031 3.289062 C 326.902344 -0.125 345.082031 1.769531 361.558594 12.957031 C 376.523438 23.191406 385.804688 37.03125 388.265625 55.226562 C 391.484375 80.816406 384.097656 101.667969 366.484375 119.488281 C 353.984375 132.1875 338.644531 140.148438 321.03125 143.75 C 315.914062 144.699219 310.800781 144.890625 305.878906 145.457031 C 288.640625 145.078125 272.921875 140.148438 259.664062 128.777344 C 250.339844 120.710938 243.917969 110.792969 240.726562 99.25 C 238.511719 103.726562 235.863281 108.015625 232.769531 112.09375 C 219.132812 130.101562 201.328125 141.289062 178.792969 144.320312 C 160.230469 146.785156 142.996094 143.183594 127.84375 131.808594 C 113.828125 121.195312 105.875 107.167969 103.789062 89.726562 C 101.328125 69.066406 107.386719 50.488281 119.890625 34.1875 C 133.335938 16.558594 151.140625 5.371094 172.921875 1.390625 C 190.394531 -1.769531 207.136719 0.179688 222.257812 10.109375 Z M 312.355469 37.273438 L 311.75 37.410156 C 294.136719 41.390625 282.769531 52.574219 278.605469 70.390625 C 275.195312 85.175781 282.390625 100.152344 296.027344 106.21875 C 306.445312 110.769531 316.863281 110.199219 326.902344 105.082031 C 341.863281 97.308594 350.007812 85.175781 350.953125 68.875 C 350.765625 66.410156 350.765625 64.515625 350.386719 62.621094 C 347.015625 44.0625 330.128906 33.476562 312.355469 37.273438 Z M 88.449219 71.910156 C 89.207031 71.910156 89.585938 72.476562 89.585938 73.234375 L 89.207031 77.785156 C 89.207031 78.542969 88.449219 79.113281 87.878906 79.113281 L 46.59375 78.921875 C 45.835938 78.921875 45.644531 78.351562 46.023438 77.785156 L 48.675781 73.046875 C 49.054688 72.476562 49.8125 71.910156 50.570312 71.910156 Z M 92.617188 54.46875 C 93.375 54.46875 93.75 55.039062 93.5625 55.605469 L 92.046875 60.15625 C 91.859375 60.914062 91.101562 61.292969 90.34375 61.292969 L 0.757812 61.484375 C 0 61.484375 -0.1875 61.101562 0.1875 60.535156 L 4.167969 55.417969 C 4.546875 54.847656 5.492188 54.46875 6.25 54.46875 Z M 102.464844 37.03125 C 103.222656 37.03125 103.410156 37.597656 103.03125 38.167969 L 99.8125 43.09375 C 99.433594 43.664062 98.488281 44.234375 97.917969 44.234375 L 29.355469 44.042969 C 28.597656 44.042969 28.410156 43.664062 28.789062 43.09375 L 32.765625 37.976562 C 33.144531 37.410156 34.089844 37.03125 34.847656 37.03125 Z M 102.464844 37.03125 "/>
</g>
</svg>
